<?xml version="1.0" standalone="no"?>
<!DOCTYPE svg PUBLIC "-//W3C//DTD SVG 20010904//EN"
 "http://www.w3.org/TR/2001/REC-SVG-20010904/DTD/svg10.dtd">
<svg version="1.0" xmlns="http://www.w3.org/2000/svg"
 width="2000.000000pt" height="1856.000000pt" viewBox="0 0 2000.000000 1856.000000"
 preserveAspectRatio="xMidYMid meet">

<g transform="translate(0.000000,1856.000000) scale(0.100000,-0.100000)"
fill="#FFFFFF" stroke="#FFFFFF">
<path d="M4517 18264 c-4 -4 -7 -15 -7 -25 0 -10 -41 -97 -91 -193 -114 -223
-143 -322 -135 -466 9 -169 62 -322 165 -475 65 -96 135 -228 177 -332 43
-107 46 -168 14 -273 -31 -101 -154 -335 -258 -489 -171 -255 -435 -689 -485
-801 l-21 -45 -7 66 c-11 99 -113 350 -189 462 -35 53 -69 82 -163 142 -79 51
-403 164 -489 171 -29 2 -129 9 -223 15 -210 13 -341 31 -476 64 -208 51 -575
64 -792 27 -70 -12 -130 -22 -132 -22 -3 0 -5 -11 -5 -24 0 -15 12 -32 34 -47
18 -13 76 -56 127 -96 71 -54 117 -81 189 -108 52 -20 132 -56 176 -80 86 -47
322 -133 437 -159 37 -9 80 -22 95 -30 15 -8 55 -19 87 -25 96 -17 507 -36
795 -36 296 0 298 0 382 -75 l43 -38 0 -173 c-1 -192 3 -175 -100 -454 -20
-55 -52 -161 -71 -235 -19 -74 -45 -169 -58 -210 -42 -134 -138 -620 -156
-790 -6 -58 -20 -177 -30 -265 -10 -88 -22 -206 -26 -262 -7 -104 -17 -130
-29 -70 -8 44 -79 280 -122 407 -57 168 -94 235 -194 349 -50 57 -114 135
-144 174 -55 75 -141 161 -260 263 -38 32 -117 104 -176 160 -147 139 -526
393 -751 504 -88 44 -211 113 -272 153 -126 84 -139 90 -155 74 -25 -25 -29
-22 284 -346 319 -331 533 -531 684 -638 42 -30 97 -71 122 -91 25 -20 109
-86 185 -145 143 -111 196 -155 293 -242 31 -28 76 -64 101 -79 59 -38 226
-210 252 -260 25 -49 73 -270 88 -406 6 -58 22 -148 35 -200 49 -197 53 -244
59 -691 3 -235 3 -429 0 -432 -3 -2 -46 37 -97 87 -121 121 -254 214 -467 326
-96 51 -186 100 -200 110 -44 31 -261 141 -344 175 -91 37 -330 147 -451 207
-96 48 -237 111 -320 143 -33 13 -109 44 -169 69 -59 25 -114 46 -122 46 -8 0
-40 9 -71 19 -32 11 -94 27 -137 36 -68 14 -81 14 -94 2 -20 -20 -4 -69 59
-183 51 -92 104 -160 284 -366 50 -57 102 -119 116 -138 15 -19 86 -99 159
-178 210 -226 365 -346 538 -417 50 -21 92 -40 92 -42 0 -2 -42 -1 -92 3 -153
10 -303 -16 -493 -85 -27 -11 -102 -38 -165 -62 -63 -23 -155 -57 -205 -75
-89 -31 -203 -76 -380 -148 -151 -61 -460 -220 -463 -237 -4 -23 35 -36 158
-54 58 -8 178 -33 267 -55 220 -55 270 -60 633 -62 l315 -3 190 57 c250 76
316 100 595 212 314 127 363 139 507 127 88 -7 124 -15 170 -36 32 -15 90 -37
128 -50 l70 -22 11 -209 c6 -115 16 -252 22 -304 7 -52 18 -215 27 -361 8
-147 20 -300 25 -340 6 -41 15 -240 20 -442 5 -202 12 -383 16 -402 9 -49 -1
-43 -32 18 -25 49 -83 140 -149 233 -16 23 -66 93 -110 154 -44 62 -90 127
-102 144 -28 42 -80 86 -102 86 -9 0 -25 -6 -34 -12 -15 -12 -17 -46 -22 -308
-4 -271 -21 -555 -45 -770 -36 -315 16 -639 187 -1174 3 -11 -39 21 -95 71
-138 124 -232 167 -402 184 -52 5 -120 13 -150 19 -30 5 -129 17 -219 25 -205
20 -306 10 -449 -41 -85 -31 -152 -73 -152 -95 0 -18 34 -39 88 -54 31 -9 131
-45 222 -80 91 -35 215 -82 276 -105 148 -56 195 -87 322 -211 59 -58 151
-135 204 -173 85 -58 115 -73 231 -110 158 -50 268 -116 387 -230 41 -40 110
-96 152 -125 43 -28 85 -63 95 -77 14 -22 18 -69 24 -287 5 -144 13 -309 18
-367 6 -58 10 -168 10 -246 1 -78 4 -162 7 -188 7 -46 7 -46 46 -46 24 0 41 5
44 14 3 8 -4 192 -16 408 -12 216 -20 427 -17 468 4 45 25 140 52 235 71 242
94 384 106 635 8 176 7 242 -6 365 -9 83 -20 197 -25 255 -17 187 -32 304 -45
360 -29 117 -47 284 -41 365 9 105 25 171 85 353 28 84 69 218 92 299 22 82
52 177 66 213 33 84 163 343 175 351 5 4 15 17 22 30 20 40 197 151 358 224
183 82 555 265 688 337 52 28 139 73 192 99 53 26 171 98 263 159 91 61 211
135 265 165 257 140 361 220 506 386 49 56 114 129 145 163 114 124 249 288
243 297 -7 12 -41 12 -48 0 -3 -5 -74 -27 -158 -50 -84 -23 -184 -54 -223 -68
-75 -28 -867 -420 -1210 -600 -348 -181 -456 -255 -620 -418 -168 -167 -250
-282 -357 -499 -27 -54 -51 -96 -54 -93 -13 13 126 396 217 597 82 178 246
438 360 570 41 47 90 108 109 136 243 355 378 513 764 900 188 187 370 362
406 388 69 51 260 146 344 171 28 9 105 22 171 30 66 8 166 24 223 35 56 11
124 20 151 20 57 0 574 85 645 105 l49 15 -7 -278 c-3 -152 -33 -1809 -67
-3682 -33 -1873 -64 -3408 -67 -3411 -4 -4 -108 -18 -232 -33 -637 -74 -1129
-181 -1407 -306 l-73 -33 0 -213 0 -214 2883 0 c3137 0 3113 0 3572 61 1271
170 2230 758 2652 1626 41 84 78 153 83 153 25 0 288 -64 375 -91 55 -18 154
-46 220 -64 66 -18 165 -49 220 -69 64 -23 134 -39 195 -46 99 -11 264 -62
323 -99 17 -11 54 -33 80 -48 82 -47 147 -87 277 -169 210 -132 407 -353 548
-611 27 -50 77 -126 110 -170 34 -43 112 -145 174 -228 140 -188 170 -223 208
-246 37 -23 72 -77 66 -103 -3 -13 9 -36 33 -65 21 -25 61 -80 89 -121 27 -41
82 -113 121 -160 39 -47 123 -157 187 -245 63 -88 146 -203 184 -255 123 -169
116 -144 150 -501 38 -410 52 -621 40 -633 -9 -9 -41 21 -133 128 -27 31 -82
76 -124 102 -88 56 -249 114 -313 114 -51 0 -90 -22 -90 -51 0 -28 68 -92 173
-161 101 -66 175 -103 282 -138 104 -34 138 -54 183 -107 l40 -48 6 -155 c4
-85 8 -497 11 -915 l4 -760 31 -11 c16 -5 35 -15 42 -22 15 -15 33 -15 45 1
10 12 8 127 -16 832 -6 171 -16 458 -22 638 -6 180 -15 342 -20 360 -14 50 5
91 57 122 55 32 84 28 191 -27 86 -44 208 -68 363 -71 94 -2 134 13 173 65
l20 27 -23 34 c-28 40 -93 85 -188 130 -89 42 -189 48 -315 18 -49 -12 -94
-21 -100 -21 -24 0 52 52 178 121 249 138 291 162 430 255 213 140 275 210
314 354 33 119 26 180 -21 180 -16 0 -226 -99 -393 -187 -162 -84 -326 -220
-426 -352 -55 -74 -121 -197 -168 -317 -30 -75 -73 -136 -87 -122 -3 4 -10 71
-15 150 -5 78 -16 204 -24 278 -24 223 -36 362 -34 415 0 28 -4 82 -10 120 -5
39 -10 101 -10 138 -1 38 -13 148 -27 245 -22 153 -25 202 -22 362 2 119 8
193 16 207 7 12 34 29 64 40 52 17 109 19 388 10 61 -2 403 23 453 33 67 14
140 51 222 113 63 47 70 56 70 87 0 32 -4 37 -55 62 -91 45 -158 50 -343 27
-275 -34 -400 -69 -626 -175 -63 -30 -118 -54 -123 -54 -18 0 38 88 136 214
315 403 424 579 544 881 113 283 168 466 213 708 25 137 20 155 -34 123 -18
-11 -88 -48 -157 -82 -132 -66 -217 -132 -304 -234 -54 -62 -202 -280 -263
-385 -102 -175 -239 -697 -259 -991 -4 -52 -10 -96 -13 -99 -12 -7 -71 272
-117 550 -60 358 -154 854 -241 1262 -4 17 2 25 28 36 80 34 107 69 395 497
230 343 372 596 522 930 63 140 141 316 174 390 101 225 362 877 438 1093 83
239 151 413 170 439 23 32 26 56 6 64 -9 4 -42 -23 -88 -72 -83 -87 -218 -195
-423 -339 -239 -167 -326 -251 -465 -445 -175 -247 -271 -468 -326 -753 -49
-260 -65 -324 -120 -502 -57 -184 -84 -324 -84 -430 0 -33 -5 -118 -11 -190
-5 -71 -13 -163 -15 -202 -3 -40 -9 -73 -12 -73 -15 0 -105 293 -132 430 -49
241 -39 314 71 516 113 207 155 293 188 392 34 104 38 140 16 148 -50 20 -274
-125 -421 -270 -82 -82 -102 -127 -111 -253 -13 -183 52 -430 199 -752 141
-310 150 -346 103 -439 -26 -51 -85 -112 -109 -112 -14 0 -27 48 -56 205 -44
232 -402 1672 -525 2114 -30 107 -55 206 -55 220 0 15 16 85 36 156 58 211 84
336 84 407 0 55 3 69 20 81 11 7 36 35 55 60 20 26 89 90 155 142 133 107 294
271 351 358 56 85 79 164 86 292 4 85 2 127 -11 184 -10 41 -26 143 -36 226
-24 188 -41 269 -85 412 -38 120 -71 173 -110 173 -43 0 -46 -35 -44 -497 2
-397 1 -436 -19 -543 -39 -217 -94 -356 -212 -541 -40 -63 -75 -116 -77 -118
-12 -15 -9 23 14 149 31 177 35 410 14 880 -7 168 -16 411 -20 540 l-6 235
-18 -59 c-11 -36 -15 -61 -9 -65 15 -9 26 -1204 13 -1316 -22 -174 -72 -415
-87 -415 -8 0 -14 5 -14 10 0 6 -31 57 -69 113 -167 249 -218 430 -208 736 7
230 37 319 177 526 28 42 100 173 78 142 -7 -10 -51 -75 -96 -145 -165 -251
-185 -313 -185 -577 0 -199 9 -262 69 -446 25 -77 52 -135 102 -215 98 -156
107 -185 106 -324 -1 -91 -9 -152 -37 -292 -21 -97 -37 -180 -37 -184 0 -4 -5
-3 -10 2 -6 6 -21 51 -34 100 -14 49 -45 153 -70 231 -25 79 -70 230 -100 335
-30 106 -73 240 -94 298 -65 171 -195 503 -266 680 -87 214 -88 228 -45 477
31 178 36 196 57 204 31 12 58 72 215 479 92 240 103 305 82 523 -18 189 -49
401 -69 472 -17 59 -51 238 -66 350 -6 44 -14 83 -19 88 -10 10 -129 -116
-201 -211 -61 -82 -90 -152 -125 -307 -39 -169 -45 -357 -16 -555 11 -80 25
-204 30 -275 7 -89 19 -157 37 -215 73 -239 75 -263 44 -485 -11 -77 -20 -168
-20 -202 0 -35 -4 -63 -10 -63 -5 0 -19 18 -30 40 -11 22 -46 81 -77 132 -90
149 -154 293 -165 373 -5 39 -13 169 -18 290 -11 291 -18 324 -181 781 -16 45
-51 175 -78 290 -27 115 -64 250 -82 299 -18 50 -49 144 -70 210 -21 66 -38
113 -39 104 0 -9 27 -101 60 -205 72 -223 78 -247 125 -469 24 -109 56 -222
91 -315 29 -80 70 -210 91 -290 l36 -145 4 -265 5 -265 -42 40 c-66 64 -103
155 -161 395 -28 118 -73 289 -99 380 -111 381 -129 495 -139 895 -6 250 -7
256 -15 150 -12 -151 -1 -547 19 -672 9 -56 25 -135 36 -175 11 -40 62 -241
115 -446 61 -241 105 -394 123 -431 16 -32 61 -94 99 -138 83 -96 105 -132
170 -278 26 -60 93 -195 148 -300 151 -285 207 -412 283 -636 38 -112 88 -253
111 -313 23 -59 75 -236 115 -391 41 -156 87 -328 104 -382 120 -398 234 -838
291 -1128 19 -94 105 -455 126 -523 13 -44 -13 -20 -95 87 -93 121 -126 149
-287 245 -62 36 -123 79 -138 96 -31 37 -34 85 -11 170 22 81 43 274 51 466 6
153 5 181 -16 284 -29 146 -55 219 -145 405 -137 281 -311 508 -432 564 -96
44 -107 8 -40 -133 24 -50 65 -117 92 -150 45 -55 192 -298 292 -483 78 -145
120 -371 130 -709 8 -273 -1 -287 -57 -79 -17 66 -47 158 -67 205 -19 47 -48
119 -63 160 -15 41 -55 139 -89 216 -57 129 -76 160 -208 335 -79 107 -175
227 -211 268 -37 40 -104 119 -150 175 -244 297 -477 475 -882 675 -129 64
-256 131 -282 149 -114 78 -274 135 -318 112 -49 -26 -9 -72 101 -115 86 -34
147 -74 294 -193 166 -134 197 -164 307 -292 50 -58 186 -199 303 -315 221
-219 396 -421 593 -685 64 -85 141 -186 172 -225 31 -38 75 -97 97 -130 47
-71 127 -214 122 -220 -2 -2 -67 33 -144 77 -184 106 -224 124 -455 201 -294
99 -465 121 -492 62 -32 -71 158 -214 423 -319 64 -25 158 -64 210 -87 52 -23
179 -70 282 -105 104 -35 238 -89 298 -120 94 -48 116 -64 149 -109 57 -77
137 -144 258 -215 136 -81 180 -116 247 -200 30 -37 86 -102 124 -143 50 -54
73 -88 82 -119 27 -100 112 -452 135 -558 14 -63 56 -257 94 -430 65 -297 203
-1031 195 -1038 -2 -2 -33 54 -68 125 -78 154 -156 262 -264 364 -95 88 -175
132 -337 181 l-108 33 -19 -24 c-10 -13 -19 -33 -19 -45 0 -39 39 -185 76
-284 53 -141 301 -629 382 -752 84 -127 202 -263 271 -314 59 -44 186 -179
236 -251 34 -50 35 -52 65 -300 16 -137 42 -344 56 -458 14 -114 24 -213 22
-219 -4 -12 -115 128 -253 322 -49 68 -135 181 -190 251 -124 157 -267 353
-321 439 -22 36 -77 114 -122 173 -45 58 -100 141 -123 183 -23 42 -62 102
-86 133 -47 60 -180 251 -277 396 -33 50 -74 107 -91 127 -17 21 -60 91 -95
155 -63 116 -64 120 -77 233 -17 158 -63 383 -133 655 -97 374 -116 436 -199
653 -43 114 -86 232 -96 262 -10 30 -51 144 -91 252 -41 108 -74 200 -74 204
0 3 -14 35 -31 70 -21 44 -36 64 -48 64 -21 0 -48 -27 -37 -37 3 -3 6 -1 6 5
0 18 36 14 51 -4 8 -10 35 -78 61 -153 175 -509 241 -698 273 -781 20 -52 61
-194 91 -315 30 -121 70 -274 89 -340 46 -165 113 -505 99 -505 -5 0 -161 235
-177 265 -20 39 -138 356 -186 498 -21 62 -64 182 -95 267 -88 236 -186 555
-211 685 -14 78 -15 79 -9 17 3 -34 18 -108 34 -165 16 -56 42 -156 59 -222
17 -66 53 -185 81 -265 29 -80 76 -217 105 -305 30 -88 72 -212 94 -275 65
-187 39 -162 -82 80 -154 308 -231 423 -388 585 -99 102 -130 139 -259 305
-40 52 -101 127 -135 165 -34 39 -106 126 -160 195 -125 158 -280 313 -418
419 -106 82 -109 85 -157 181 -124 247 -328 503 -565 708 -455 395 -1047 663
-1795 812 -85 17 -156 32 -158 34 -2 2 34 16 80 31 457 150 910 394 1245 672
123 102 357 341 444 453 361 468 522 958 506 1545 -10 342 -67 598 -196 870
-111 232 -221 387 -415 580 -533 532 -1295 820 -2311 875 -120 6 -1247 10
-3073 10 l-2882 0 2 -232 3 -232 105 -19 105 -20 -75 -18 c-41 -10 -169 -37
-285 -59 -286 -56 -492 -109 -735 -190 -435 -145 -648 -263 -892 -498 -125
-121 -193 -212 -266 -357 -54 -106 -61 -144 -62 -310 -1 -250 -14 -346 -84
-628 -59 -235 -107 -379 -122 -364 -3 3 -6 245 -5 539 0 518 1 542 31 840 32
327 68 562 101 662 11 33 39 90 63 126 24 36 75 117 114 180 41 67 104 152
149 200 109 117 199 224 227 269 16 24 35 41 53 45 15 4 64 29 108 56 44 26
114 64 155 83 97 44 222 125 394 256 109 83 162 132 249 230 105 120 270 357
384 551 80 134 213 389 213 406 0 18 -29 30 -45 18 -60 -44 -182 -124 -290
-189 -315 -191 -635 -414 -743 -519 -74 -71 -191 -213 -254 -307 -24 -36 -63
-115 -86 -175 -24 -60 -60 -152 -80 -204 -52 -134 -119 -238 -257 -400 -105
-123 -204 -268 -309 -451 -49 -86 -20 60 65 318 27 83 49 158 49 167 0 41 80
248 155 401 46 94 108 224 140 290 31 66 73 147 94 180 21 33 63 103 94 155
58 99 142 212 312 422 153 188 228 256 380 343 55 32 127 78 160 102 106 78
258 162 340 189 113 36 347 63 640 74 138 4 269 11 290 15 133 22 449 132 598
206 69 35 212 137 300 213 54 48 69 77 47 91 -6 4 -90 -12 -188 -34 -318 -71
-386 -80 -857 -111 -214 -14 -344 -36 -435 -71 -153 -61 -353 -195 -560 -375
-41 -36 -142 -111 -225 -166 -131 -89 -258 -179 -374 -267 l-34 -26 13 25 c7
14 36 59 65 100 76 108 112 186 119 254 4 32 11 66 16 76 16 30 33 314 27 460
-3 89 -12 162 -25 215 -12 44 -28 123 -37 175 -9 52 -44 176 -77 275 -34 99
-78 248 -98 330 -35 143 -49 172 -73 149z m57 -226 c16 -68 44 -170 62 -228
45 -138 62 -203 84 -330 10 -58 26 -139 35 -180 14 -61 16 -114 12 -285 -4
-191 -21 -345 -35 -330 -3 3 -13 36 -23 74 -20 79 -122 285 -208 419 -132 205
-176 428 -123 617 23 78 150 365 162 365 4 0 19 -55 34 -122z m2546 -872 c0
-2 -46 -36 -102 -77 -115 -81 -274 -155 -460 -213 -203 -63 -225 -66 -517 -76
-151 -6 -327 -17 -390 -26 -64 -8 -143 -19 -177 -24 -34 -4 -70 -13 -82 -19
-11 -6 -26 -11 -33 -11 -34 0 101 100 254 188 204 117 310 140 762 163 243 12
532 50 670 89 32 9 75 12 75 6z m-1572 -965 c-9 -27 -168 -198 -278 -299 -69
-63 -136 -126 -150 -140 l-25 -25 34 23 c44 31 211 185 283 262 32 34 60 59
63 56 6 -6 -112 -216 -175 -309 -90 -132 -247 -336 -313 -405 -118 -125 -411
-336 -572 -413 -33 -16 -85 -52 -117 -80 l-56 -51 -36 42 -35 43 49 50 c34 35
55 68 69 107 36 105 97 222 161 308 84 114 285 311 393 385 48 33 138 96 200
140 156 110 481 315 500 315 5 0 7 -4 5 -9z m-3483 -122 c98 -6 181 -18 240
-34 115 -31 328 -62 520 -75 179 -13 284 -32 385 -70 41 -16 93 -34 115 -40
109 -34 258 -131 301 -197 50 -77 85 -148 75 -151 -6 -2 -43 19 -83 46 -40 27
-95 61 -123 74 -90 46 -367 119 -550 145 -93 13 -208 35 -255 49 -60 17 -128
28 -228 34 -79 5 -180 16 -225 24 -45 8 -111 18 -147 21 -36 4 -118 15 -184
26 -65 11 -120 18 -123 15 -2 -2 29 -9 69 -16 40 -7 145 -25 233 -41 88 -16
228 -34 310 -40 104 -8 202 -23 320 -49 94 -21 226 -43 293 -49 68 -6 133 -16
144 -22 12 -6 79 -27 150 -45 131 -35 298 -108 282 -124 -14 -13 -453 -15
-759 -3 -260 10 -285 12 -352 36 -40 14 -94 29 -120 33 -27 3 -77 17 -112 30
-35 13 -91 31 -125 40 -34 8 -104 38 -156 66 -52 27 -131 62 -175 77 -119 41
-348 192 -331 219 5 8 177 30 276 35 57 3 146 -1 335 -14z m-416 -1384 c93
-47 196 -105 228 -128 32 -24 128 -90 213 -147 109 -74 189 -138 270 -215 63
-61 142 -132 175 -159 96 -79 214 -197 255 -256 21 -30 72 -94 113 -141 41
-48 89 -108 106 -133 36 -52 75 -135 68 -143 -3 -2 -24 16 -47 41 -24 26 -72
67 -109 93 -63 44 -157 122 -229 190 -18 17 -59 51 -90 74 -31 23 -82 63 -112
89 -60 51 -117 95 -255 199 -49 38 -124 99 -165 136 -41 37 -109 93 -150 125
-41 31 -135 123 -208 203 -73 80 -158 168 -188 196 -48 44 -62 61 -50 61 2 0
81 -38 175 -85z m4546 -445 c141 -26 194 -40 155 -40 -7 0 -52 -37 -99 -83
-96 -93 -173 -141 -431 -275 -307 -159 -589 -265 -868 -328 -114 -25 -187 -58
-309 -139 -162 -109 -257 -156 -443 -219 -189 -64 -450 -114 -450 -87 0 25
243 223 397 323 326 211 354 230 350 235 -4 4 -67 -34 -217 -132 -36 -24 -113
-71 -172 -105 -112 -66 -242 -173 -341 -279 -32 -35 -60 -61 -63 -59 -6 6 18
74 45 126 108 211 292 403 541 564 102 67 155 94 278 142 52 20 104 43 115 51
27 16 337 118 427 139 36 9 99 25 140 36 41 11 208 47 370 80 162 33 309 64
325 69 49 15 84 13 250 -19z m845 -158 l565 -107 -4 -335 c-2 -184 -7 -414
-10 -510 l-6 -174 -110 -13 c-60 -6 -204 -16 -320 -22 -219 -10 -287 -22 -384
-67 -168 -76 -343 -248 -430 -421 -19 -38 -38 -63 -47 -63 -9 0 -48 -23 -88
-52 -80 -59 -342 -273 -398 -326 -21 -20 -38 -33 -38 -29 0 5 35 65 77 134 42
69 110 200 151 291 41 92 80 175 87 187 7 11 34 70 60 130 26 61 71 161 101
224 30 63 54 121 52 130 -10 51 -148 -17 -330 -163 -63 -50 -204 -159 -314
-243 -210 -159 -348 -291 -456 -434 -80 -107 -185 -295 -261 -466 -57 -132
-178 -461 -212 -583 -7 -25 -32 -90 -55 -145 -23 -55 -52 -127 -65 -160 -13
-33 -42 -103 -65 -155 l-41 -95 6 70 c10 114 43 247 101 412 84 241 105 397
79 608 -13 108 -14 198 -9 525 9 503 -5 640 -64 640 -10 0 -26 -6 -36 -13 -16
-12 -17 -16 -5 -35 8 -12 19 -22 25 -22 26 0 34 -133 34 -571 1 -310 5 -474
14 -544 11 -84 11 -119 0 -218 -19 -159 -34 -221 -89 -357 -60 -147 -77 -207
-114 -411 -31 -169 -44 -219 -62 -230 -5 -3 -12 -23 -15 -45 -7 -47 -13 -68
-19 -63 -8 9 -77 284 -90 359 -7 41 -15 149 -19 240 -3 91 -14 215 -23 276
-15 103 -15 130 1 381 17 291 34 398 92 593 48 161 58 188 132 340 41 86 66
152 70 183 2 26 2 47 -1 47 -10 0 -70 -109 -124 -225 -71 -153 -106 -257 -158
-469 -43 -177 -45 -192 -61 -464 -14 -256 -14 -288 0 -374 9 -51 18 -158 22
-238 7 -180 28 -361 49 -420 9 -25 25 -88 36 -141 10 -53 26 -113 34 -133 8
-19 15 -46 15 -59 0 -32 -106 -343 -131 -383 -10 -17 -61 -157 -113 -310 -52
-154 -119 -342 -149 -419 -30 -77 -79 -219 -107 -315 -29 -96 -67 -224 -85
-285 -18 -60 -43 -150 -55 -200 -12 -49 -24 -92 -26 -94 -2 -2 -22 37 -45 85
l-42 89 -8 165 c-4 91 -12 327 -19 525 -6 198 -18 434 -26 525 -9 91 -18 246
-21 345 l-4 180 46 130 c71 197 77 228 69 385 -6 146 -2 128 -120 455 -45 124
-47 136 -55 275 -12 222 2 286 129 605 76 191 138 523 151 810 l6 140 50 17
c28 9 89 22 135 28 110 15 262 60 429 127 149 60 179 76 334 175 126 81 194
111 320 139 296 67 596 184 883 343 270 151 406 253 475 356 l34 51 50 -6 c28
-4 304 -55 615 -113z m4529 -215 c416 -63 764 -191 1020 -374 167 -120 328
-288 428 -448 93 -147 174 -364 209 -560 22 -122 30 -429 14 -564 -89 -764
-646 -1351 -1662 -1751 l-177 -70 -1263 2 -1263 3 -3 1893 -2 1893 1292 -4
c1161 -3 1305 -5 1407 -20z m5408 -809 c6 -52 27 -176 47 -274 47 -242 59
-356 60 -574 1 -183 1 -186 -30 -275 -87 -247 -218 -565 -235 -565 -3 0 -9 23
-13 50 -4 28 -23 101 -42 163 -28 86 -39 146 -50 262 -8 83 -24 201 -34 264
-31 175 -35 316 -16 448 35 237 89 376 191 493 32 36 64 75 72 88 9 12 21 21
27 19 6 -2 16 -46 23 -99z m-10786 -116 c-11 -21 -44 -67 -73 -102 -49 -59
-50 -70 -4 -31 18 15 18 15 11 -9 -4 -14 -33 -79 -65 -146 -32 -66 -77 -165
-100 -220 -53 -125 -99 -216 -147 -293 -21 -33 -49 -79 -63 -102 -14 -23 -60
-80 -102 -126 -43 -46 -117 -136 -165 -201 -48 -64 -130 -164 -183 -222 -251
-275 -440 -500 -517 -615 -91 -137 -116 -171 -138 -195 -13 -14 -59 -81 -104
-150 -110 -172 -114 -176 -97 -120 8 25 35 92 61 150 189 423 256 583 289 694
47 154 142 387 234 577 123 252 297 478 497 647 145 122 652 502 670 502 13 0
12 -6 -4 -38z m1399 -95 c0 -35 -3 -125 -7 -200 l-6 -136 -66 -15 c-116 -26
-431 -75 -611 -95 -96 -11 -207 -27 -247 -35 -39 -9 -109 -18 -155 -21 -46 -3
-100 -8 -120 -11 -21 -2 -38 0 -38 5 0 20 102 180 156 244 106 128 287 242
429 272 39 8 158 19 265 25 107 7 229 15 270 19 142 15 130 20 130 -52z
m-6636 -272 c21 -39 127 -144 166 -165 13 -7 -4 13 -38 45 -67 62 -127 133
-119 141 9 9 146 -27 244 -66 206 -80 308 -126 648 -290 66 -32 158 -75 205
-95 47 -20 129 -57 182 -81 54 -24 99 -44 102 -44 2 0 31 -15 63 -34 182 -105
278 -158 358 -201 136 -72 262 -161 397 -280 75 -66 161 -198 237 -365 88
-192 90 -203 22 -154 l-36 26 30 -26 c17 -15 49 -42 73 -62 41 -34 52 -57 33
-69 -15 -9 -116 33 -155 64 -22 17 -58 33 -94 40 -32 6 -67 18 -79 26 -11 8
-70 31 -129 50 -60 20 -126 47 -146 60 -43 28 -187 90 -235 100 -40 8 -239 87
-307 122 -50 25 -78 36 -246 95 -284 99 -428 213 -784 622 -299 343 -333 386
-402 507 -39 69 -39 69 -21 69 7 0 21 -16 31 -35z m5262 -346 c-26 -17 -50
-28 -53 -26 -7 8 69 57 87 57 8 0 -7 -14 -34 -31z m-4025 -924 c78 -11 117
-24 205 -66 60 -28 172 -72 249 -99 150 -50 229 -86 221 -99 -3 -4 -28 -11
-55 -14 -27 -3 -98 -25 -158 -47 -59 -23 -164 -64 -233 -90 -69 -26 -147 -60
-175 -74 -27 -14 -102 -42 -165 -61 -63 -20 -167 -54 -230 -75 -207 -70 -226
-73 -515 -71 -314 2 -437 13 -575 51 -58 16 -170 41 -250 56 -80 15 -149 31
-154 35 -9 8 67 46 294 146 144 64 251 106 625 245 149 55 299 111 334 125
156 59 344 72 582 38z m15798 -22 c44 -87 105 -336 116 -473 4 -47 15 -134 26
-195 32 -187 24 -344 -24 -455 -36 -84 -212 -279 -332 -371 -68 -52 -91 -66
-82 -53 3 5 30 48 60 96 72 115 122 235 158 383 44 177 52 324 42 700 -9 326
-8 405 8 405 5 0 17 -17 28 -37z m-11259 -121 c0 -15 -48 -54 -61 -50 -16 5
-139 -70 -289 -177 -63 -45 -126 -88 -138 -95 -13 -6 -21 -14 -19 -17 7 -7 83
38 192 112 94 65 212 131 220 124 6 -7 -148 -180 -276 -310 -129 -130 -235
-205 -449 -319 -74 -39 -196 -113 -270 -163 -74 -50 -216 -132 -315 -182 -99
-51 -245 -125 -325 -166 -172 -88 -412 -203 -530 -253 -47 -20 -103 -51 -124
-68 -22 -18 -41 -27 -43 -21 -2 6 -12 9 -22 6 -13 -3 1 33 57 146 85 172 145
250 291 376 199 173 356 263 1146 657 462 230 615 302 705 331 63 20 142 45
175 55 74 24 75 24 75 14z m9906 -214 c13 -26 24 -55 24 -65 -1 -18 -79 123
-79 142 0 15 28 -24 55 -77z m-13143 -173 c42 -31 49 -193 15 -341 -36 -157
-46 -123 -62 219 -6 127 -5 137 11 137 10 0 26 -7 36 -15z m11841 -536 c314
-159 442 -246 620 -419 82 -80 178 -183 215 -230 36 -46 99 -123 139 -170 70
-80 261 -330 329 -430 38 -55 128 -258 184 -412 71 -197 130 -382 127 -403 -4
-27 -84 91 -184 272 -89 160 -135 231 -214 328 -31 39 -115 149 -187 245 -179
240 -425 522 -604 692 -82 79 -180 179 -217 223 -111 134 -202 223 -314 312
-158 124 -155 124 106 -8z m1297 -502 c151 -115 367 -481 462 -782 35 -111 47
-226 40 -389 -7 -158 -15 -154 -32 16 -26 272 -75 429 -176 573 -23 33 -71
110 -105 170 -35 61 -92 150 -128 198 -62 85 -132 209 -132 235 0 21 27 13 71
-21z m3005 -359 c-83 -233 -175 -474 -261 -683 -48 -115 -104 -255 -125 -310
-21 -55 -69 -165 -105 -245 -37 -80 -117 -255 -177 -390 -114 -257 -199 -419
-332 -635 -107 -174 -282 -434 -313 -465 l-25 -25 6 60 c3 33 15 174 26 313
24 302 33 352 100 558 48 151 65 223 125 534 46 240 128 439 269 654 138 212
234 305 547 533 124 90 239 177 255 194 53 56 55 35 10 -93z m-16597 -128 c6
0 17 -11 23 -25 6 -14 15 -25 20 -25 5 0 13 -10 18 -22 5 -13 49 -79 99 -148
122 -170 163 -244 217 -396 75 -211 125 -335 167 -412 35 -66 40 -84 47 -175
5 -56 18 -145 29 -197 39 -190 51 -267 56 -390 3 -69 13 -192 22 -275 12 -113
14 -196 9 -335 -6 -175 -30 -478 -41 -527 -9 -41 -23 -24 -30 35 -12 104 -26
175 -70 357 -24 99 -46 195 -50 213 -4 18 -9 31 -12 29 -5 -5 15 -117 48 -262
36 -164 86 -501 76 -512 -7 -6 -33 40 -47 82 -6 22 -27 67 -44 100 -18 33 -59
123 -91 200 -60 139 -81 175 -196 335 -103 143 -154 268 -236 580 -48 183 -83
346 -94 435 -15 115 -5 483 17 666 10 85 17 222 18 376 0 134 4 243 9 243 4 0
5 19 1 43 -5 37 -4 40 9 25 8 -10 19 -18 26 -18z m8571 -63 c419 -57 709 -139
999 -283 642 -319 1022 -822 1106 -1461 19 -147 19 -429 0 -576 -106 -811
-691 -1405 -1627 -1652 l-133 -35 -1542 0 -1543 0 0 2015 0 2016 1308 -4
c1152 -3 1322 -6 1432 -20z m4330 -536 c224 -64 413 -131 530 -190 138 -69
249 -138 298 -185 37 -35 97 -124 90 -132 -3 -3 -59 18 -124 46 -66 28 -153
60 -194 71 -41 11 -113 36 -160 55 -47 20 -157 65 -245 101 -88 36 -194 83
-236 104 -79 41 -209 141 -209 161 0 18 134 2 250 -31z m2387 -668 c-44 -113
-79 -183 -160 -316 -130 -214 -145 -292 -103 -534 14 -84 26 -156 26 -160 -1
-5 -10 8 -20 28 -38 72 -82 196 -118 329 -31 119 -36 150 -36 260 -1 177 12
203 185 353 71 62 157 129 192 150 l62 38 3 -29 c2 -17 -12 -69 -31 -119z
m-3299 -11 c119 -93 226 -196 312 -302 41 -51 127 -154 191 -229 63 -75 164
-199 224 -276 60 -77 157 -189 215 -250 59 -60 124 -135 147 -165 82 -111 275
-462 261 -475 -3 -3 -47 36 -99 86 -119 115 -334 284 -421 332 -36 20 -104 65
-150 99 -46 35 -122 83 -169 107 -68 36 -104 65 -189 151 -58 59 -140 135
-182 169 -43 34 -78 70 -78 79 0 40 -31 278 -45 346 -20 98 -66 255 -98 339
-15 38 -21 65 -14 61 7 -4 49 -37 95 -72z m-12858 -557 c84 -9 156 -18 160
-20 4 -2 61 -9 126 -15 216 -20 295 -45 399 -122 77 -58 198 -178 253 -251 24
-32 83 -108 131 -170 48 -61 97 -126 109 -143 22 -33 105 -210 117 -254 7 -25
7 -25 -26 5 -35 31 -27 19 29 -48 37 -43 77 -117 64 -117 -20 0 -162 102 -193
139 -40 47 -240 183 -301 204 -24 9 -84 27 -135 41 -77 21 -109 37 -190 93
-54 37 -145 115 -203 173 -123 123 -168 152 -356 224 -76 30 -177 70 -224 90
-47 21 -120 51 -163 68 -49 19 -75 34 -69 40 15 15 149 58 210 67 84 13 95 12
262 -4z m13099 -353 c136 -137 169 -165 251 -212 52 -29 130 -80 173 -112 42
-33 112 -80 155 -105 42 -25 102 -66 132 -92 30 -26 73 -60 95 -75 85 -62 354
-341 340 -354 -2 -3 -35 20 -72 51 -149 122 -366 232 -595 301 -153 47 -214
55 -610 81 -110 8 -106 3 -88 96 20 104 40 325 40 452 0 87 4 127 11 127 6 0
82 -71 168 -158z m-14 -602 c296 -14 437 -43 669 -137 112 -45 203 -95 329
-183 81 -57 374 -358 429 -442 44 -66 90 -157 86 -168 -2 -5 -68 32 -148 82
-80 49 -176 108 -215 130 -38 22 -94 55 -122 73 -71 44 -219 91 -328 105 -51
6 -149 30 -225 55 -74 24 -173 53 -220 65 -47 11 -132 36 -190 55 -58 19 -165
48 -239 65 -74 17 -137 32 -139 35 -4 3 25 109 73 272 2 6 12 10 22 7 10 -2
108 -8 218 -14z m4155 -330 c0 -12 -15 -89 -34 -173 -50 -225 -218 -668 -318
-842 -80 -138 -348 -503 -501 -682 -20 -25 -44 -58 -52 -74 -18 -34 -38 -39
-30 -6 3 12 12 92 20 177 9 85 20 171 25 190 5 19 21 91 36 160 33 162 104
409 145 505 85 206 322 529 462 632 48 35 222 132 240 133 4 0 7 -9 7 -20z
m-1873 -291 c94 -40 142 -72 226 -156 151 -150 282 -398 380 -723 20 -63 52
-152 72 -197 36 -81 57 -165 70 -276 6 -55 6 -58 -12 -46 -11 6 -30 27 -43 47
-14 19 -65 67 -115 107 -133 106 -222 208 -330 380 -58 92 -301 578 -337 673
-29 77 -69 232 -63 243 4 5 23 2 43 -7 20 -8 69 -29 109 -45z m2066 -1387 c26
-11 47 -25 47 -31 0 -17 -82 -80 -142 -111 -78 -39 -127 -47 -368 -60 -151 -9
-241 -9 -341 -1 -75 6 -150 8 -167 5 -54 -11 -36 11 36 44 197 91 335 130 568
162 174 24 301 21 367 -8z m78 -1388 c-14 -73 -49 -150 -92 -199 -39 -45 -240
-197 -331 -251 -35 -20 -137 -75 -226 -121 -90 -46 -187 -99 -215 -118 -29
-20 -53 -31 -55 -26 -6 17 58 143 115 229 63 96 165 202 268 280 86 65 538
295 543 276 2 -7 -2 -38 -7 -70z m-1635 -605 c38 -12 100 -37 138 -57 73 -38
176 -125 164 -137 -20 -20 -220 75 -319 151 -92 71 -90 76 17 43z m1106 -199
c63 -19 198 -103 206 -128 2 -7 -16 -21 -45 -34 -48 -21 -48 -21 -181 -4 -155
20 -175 26 -265 79 -48 28 -64 43 -55 48 31 20 181 55 249 58 15 0 56 -8 91
-19z"/>
<path d="M5069 15723 c-13 -16 -12 -17 4 -4 9 7 17 15 17 17 0 8 -8 3 -21 -13z"/>
<path d="M5000 15676 c-25 -18 -56 -46 -70 -62 -14 -15 8 -1 48 31 64 52 78
66 70 65 -2 0 -23 -16 -48 -34z"/>
<path d="M4795 15468 l-50 -53 53 50 c28 27 52 51 52 52 0 8 -9 -1 -55 -49z"/>
<path d="M4629 15301 c-13 -11 -21 -22 -18 -25 3 -3 16 5 29 19 28 30 22 33
-11 6z"/>
<path d="M4399 15068 c-138 -149 -180 -201 -78 -98 83 84 204 220 196 220 -3
0 -56 -55 -118 -122z"/>
<path d="M1620 15990 c8 -5 20 -10 25 -10 6 0 3 5 -5 10 -8 5 -19 10 -25 10
-5 0 -3 -5 5 -10z"/>
<path d="M4562 12710 c0 -19 2 -27 5 -17 2 9 2 25 0 35 -3 9 -5 1 -5 -18z"/>
<path d="M4551 12654 c0 -11 3 -14 6 -6 3 7 2 16 -1 19 -3 4 -6 -2 -5 -13z"/>
<path d="M4525 12500 c-4 -23 -5 -43 -2 -46 2 -3 7 14 11 37 4 23 5 44 2 46
-2 2 -7 -14 -11 -37z"/>
<path d="M4511 12424 c0 -11 3 -14 6 -6 3 7 2 16 -1 19 -3 4 -6 -2 -5 -13z"/>
<path d="M5964 12668 c-17 -18 -37 -42 -45 -53 -26 -36 18 3 52 47 37 46 34
50 -7 6z"/>
<path d="M1160 12400 c8 -5 20 -10 25 -10 6 0 3 5 -5 10 -8 5 -19 10 -25 10
-5 0 -3 -5 5 -10z"/>
<path d="M6068 10754 c-38 -19 -68 -36 -68 -39 0 -5 139 60 148 69 14 14 -18
2 -80 -30z"/>
<path d="M5183 10229 c-35 -22 -46 -37 -15 -20 22 13 58 40 52 41 -3 0 -20
-10 -37 -21z"/>
<path d="M4912 10063 c-105 -68 -156 -105 -97 -72 59 33 195 120 195 125 0 8
-8 4 -98 -53z"/>
<path d="M4685 9924 c-82 -46 -185 -114 -185 -122 0 -2 15 5 33 16 17 11 78
48 135 81 56 34 102 63 102 66 0 7 4 9 -85 -41z"/>
<path d="M3071 9044 c0 -11 3 -14 6 -6 3 7 2 16 -1 19 -3 4 -6 -2 -5 -13z"/>
<path d="M15945 13460 c-4 -7 -2 -16 6 -21 18 -11 23 -4 11 17 -7 12 -11 13
-17 4z"/>
<path d="M17502 11215 c-12 -25 -20 -45 -17 -45 7 0 47 81 43 86 -3 2 -14 -17
-26 -41z"/>
<path d="M16072 7835 c0 -16 2 -22 5 -12 2 9 2 23 0 30 -3 6 -5 -1 -5 -18z"/>
<path d="M16064 7690 c0 -63 1 -89 3 -57 2 31 2 83 0 115 -2 31 -3 5 -3 -58z"/>
<path d="M16885 4336 c-346 -41 -455 -66 -455 -105 0 -26 11 -32 120 -73 168
-63 249 -71 446 -42 82 11 145 14 255 9 l145 -7 80 32 c54 22 94 32 127 31 41
-1 47 1 47 18 0 11 -12 28 -26 38 -15 10 -42 33 -61 51 -95 91 -233 100 -678
48z m602 -42 c31 -16 56 -33 56 -39 1 -5 -32 -27 -73 -47 l-73 -36 -176 1
c-117 0 -216 -5 -296 -16 -116 -17 -165 -16 -250 4 -56 14 -145 50 -145 59 0
11 70 27 205 45 66 9 199 27 295 40 123 17 209 23 288 21 102 -3 119 -6 169
-32z"/>
<path d="M6035 3015 c-299 -65 -530 -342 -576 -690 -15 -115 -6 -295 20 -402
64 -257 223 -440 453 -520 107 -37 309 -44 428 -14 231 57 410 219 504 455 39
98 56 184 63 322 14 288 -67 516 -241 682 -86 82 -202 144 -312 167 -84 18
-258 18 -339 0z m316 -154 c161 -51 281 -190 341 -396 20 -70 23 -102 23 -255
-1 -206 -13 -268 -81 -408 -101 -208 -284 -319 -494 -297 -216 23 -379 178
-452 432 -20 68 -23 100 -22 253 0 156 3 186 27 272 38 144 101 282 145 318
115 94 350 131 513 81z"/>
<path d="M8262 3010 c-313 -82 -533 -369 -560 -732 -16 -209 18 -405 96 -553
52 -98 183 -229 279 -278 105 -55 204 -77 337 -77 144 0 230 19 341 74 113 57
198 132 268 239 121 184 173 409 148 641 -40 365 -230 608 -538 687 -102 26
-270 25 -371 -1z m258 -130 c304 -48 490 -383 440 -794 -23 -195 -83 -329
-195 -442 -115 -116 -246 -160 -404 -136 -404 62 -579 600 -366 1124 50 123
68 144 158 187 45 22 107 44 137 50 30 6 64 13 75 15 38 7 90 6 155 -4z"/>
<path d="M3240 2976 l0 -33 123 -23 c67 -12 133 -24 146 -27 l23 -6 -6 -126
c-3 -69 -9 -342 -12 -606 -4 -264 -9 -518 -13 -565 l-6 -84 -94 -13 c-129 -19
-161 -33 -161 -73 l0 -31 513 4 c454 3 519 5 572 21 158 47 271 132 323 243
24 52 27 69 27 168 0 101 -2 114 -28 164 -55 104 -176 189 -321 226 -32 8 -61
16 -63 18 -2 2 18 12 44 22 68 25 177 99 213 145 17 21 43 65 57 97 37 79 39
202 4 280 -29 65 -112 145 -185 179 -110 50 -153 54 -673 54 l-483 0 0 -34z
m909 -106 c82 -14 150 -49 194 -100 44 -52 61 -112 55 -195 -9 -110 -73 -190
-202 -254 l-63 -31 -207 0 -206 0 0 295 0 295 183 0 c100 0 211 -5 246 -10z
m62 -736 c311 -71 365 -442 83 -580 l-59 -29 -257 -3 -258 -3 0 315 0 316 211
0 c156 0 228 -4 280 -16z"/>
<path d="M9880 2976 l0 -33 123 -23 c67 -12 133 -24 146 -27 l24 -6 -7 -171
c-3 -94 -9 -385 -12 -646 -4 -261 -10 -495 -13 -519 l-6 -45 -79 -13 c-44 -7
-100 -19 -125 -27 -41 -11 -46 -17 -49 -44 l-3 -32 630 0 631 0 0 325 0 325
-30 0 c-16 0 -30 -1 -31 -2 0 -2 -21 -118 -47 -258 l-47 -255 -313 -3 -312 -2
2 687 3 688 30 3 c37 3 176 30 228 43 32 9 37 14 37 39 l0 30 -390 0 -390 0 0
-34z"/>
<path d="M11802 2978 l3 -33 139 -27 c77 -15 142 -31 146 -35 3 -5 1 -285 -6
-623 -7 -338 -13 -645 -13 -682 -1 -62 -3 -68 -23 -72 -13 -2 -61 -11 -108
-19 -123 -22 -140 -30 -140 -67 l0 -30 478 0 c262 0 504 4 537 10 208 33 361
139 412 285 12 34 18 80 18 145 0 83 -3 102 -28 151 -57 118 -186 205 -361
244 -27 6 -23 9 60 50 142 69 227 170 254 299 31 153 -49 306 -196 376 -118
57 -151 60 -687 60 l-488 0 3 -32z m988 -126 c70 -27 124 -72 153 -125 17 -33
22 -59 22 -122 0 -70 -4 -87 -30 -134 -34 -62 -85 -106 -172 -150 l-62 -31
-206 0 -205 0 0 296 0 296 223 -4 c197 -4 228 -7 277 -26z m-28 -713 c171 -36
280 -156 280 -309 0 -138 -73 -236 -215 -289 -53 -19 -77 -21 -297 -21 l-240
0 0 315 0 315 210 0 c115 0 233 -5 262 -11z"/>
<path d="M13960 2976 l0 -34 146 -27 146 -27 -6 -57 c-3 -31 -8 -281 -12 -556
-4 -275 -9 -561 -13 -635 l-6 -134 -80 -13 c-44 -7 -100 -19 -125 -26 -40 -12
-45 -18 -48 -46 l-3 -31 360 0 361 0 0 34 0 34 -67 11 c-38 6 -104 17 -148 24
l-80 13 -3 619 c-2 516 0 617 11 605 7 -8 211 -313 452 -677 l438 -663 102 0
102 0 6 272 c4 149 7 489 7 755 l0 483 28 0 c25 0 106 17 195 41 32 8 37 14
37 39 l0 30 -350 0 -350 0 0 -34 0 -33 139 -23 138 -22 6 -232 c4 -127 9 -409
12 -626 6 -364 5 -393 -10 -375 -9 11 -213 318 -453 682 l-437 662 -247 1
-248 0 0 -34z"/>
<path d="M16370 2976 l0 -33 123 -23 c67 -12 133 -24 146 -27 l24 -6 -7 -141
c-3 -78 -9 -357 -12 -621 -4 -264 -9 -511 -13 -550 l-6 -69 -94 -13 c-129 -19
-161 -33 -161 -73 l0 -31 513 3 c451 3 519 6 571 21 158 47 264 125 318 235
31 63 33 72 33 177 0 101 -2 114 -28 164 -55 104 -176 189 -321 226 -32 8 -61
16 -63 19 -2 2 22 13 54 25 32 12 87 43 124 70 237 175 220 496 -35 621 -114
56 -153 60 -683 60 l-483 0 0 -34z m909 -106 c80 -14 147 -47 194 -99 45 -49
61 -106 55 -193 -8 -112 -75 -197 -204 -259 l-62 -29 -206 0 -206 0 0 295 0
295 183 0 c100 0 211 -5 246 -10z m61 -736 c184 -42 293 -191 262 -358 -21
-112 -97 -195 -216 -237 -49 -17 -84 -19 -296 -19 l-240 0 0 315 0 315 211 0
c155 0 228 -4 279 -16z"/>
</g>
</svg>
